PathFileType	4	(X/Y/Z)	Demo_SinglePerson_0-99_filt_butterworth.trc
DataRate	CameraRate	NumFrames	NumMarkers	Units	OrigDataRate	OrigDataStartFrame	OrigNumFrames
60	60	8	22	m	60	75	100
Frame#	Time	Hip			RHip			RKnee			RAnkle			RBigToe			RSmallToe			RHeel			LHip			LKnee			LAnkle			LBigToe			LSmallToe			LHeel			Neck			Head			Nose			RShoulder			RElbow			RWrist			LShoulder			LElbow			LWrist			
		X1	Y1	Z1	X2	Y2	Z2	X3	Y3	Z3	X4	Y4	Z4	X5	Y5	Z5	X6	Y6	Z6	X7	Y7	Z7	X8	Y8	Z8	X9	Y9	Z9	X10	Y10	Z10	X11	Y11	Z11	X12	Y12	Z12	X13	Y13	Z13	X14	Y14	Z14	X15	Y15	Z15	X16	Y16	Z16	X17	Y17	Z17	X18	Y18	Z18	X19	Y19	Z19	X20	Y20	Z20	X21	Y21	Z21	X22	Y22	Z22	
75	1.25	-0.08142819336574332	0.9219599611471294	-0.8716484848727608	-0.1844570624554043	0.9339167993340957	-0.868712386899056	-0.1407129811984691	0.5370203054066364	-0.758331878887393	-0.07744001367646935	0.1496478717682359	-0.7271136480561738	-0.067046870650729	0.07482831876990653	-0.5563937477329035	-0.12025021102049119	0.07079832160210763	-0.5885919702772281	-0.06826062594825218	0.0948646261218714	-0.7586847346157658	0.013550172756948352	0.893643361570185	-0.8707581905662171	-0.022043988048784897	0.49320713628667134	-0.9488177278016827	-0.027658276871336478	0.16489401951140983	-1.1496739517181307	-0.013090457692064432	0.07158504157143447	-0.9908921567164439	0.03269803844255838	0.07042900411760458	-1.0487725380448394	-0.03428260853548434	0.12365119893550325	-1.200221793257771	0.10581295727075807	1.4080426754031476	-0.768508530364027	0.21820259880975257	1.6006094334374272	-0.5672111207801025	0.17322716799859678	1.4133674436077701	-0.6184115349732022	-0.08952250890992967	1.4436757053926128	-0.8020719525014552	-0.3436221370214669	1.3799927567783237	-0.795402205822949	-0.2879466836580018	1.4677270055406424	-0.5570900567233247	0.23669018023863955	1.2993441824708118	-0.871280866176923	0.36160783807912655	1.0555107542356301	-0.9440741181975525	0.44698167242057124	0.8254080597031572	-0.8477252667755408
76	1.2666666666666666	-0.07361565105453403	0.9161219497015379	-0.862578897119574	-0.17491474602691529	0.9267069609580709	-0.8547601433335442	-0.1291312702099747	0.5302312094822346	-0.7472780652569606	-0.06375889886069495	0.1432010125702916	-0.7327053195333532	-0.06084665901361445	0.06659570668995979	-0.5627529844519457	-0.11273320217990787	0.06376374912869824	-0.5954502471402037	-0.05398315154122466	0.08914305346618567	-0.7640117885406472	0.02181164615074092	0.8898594283202713	-0.8590168018222436	-0.017458404200858573	0.48992667198274775	-0.9446405059281229	-0.027981815204457947	0.1649254194970925	-1.1485600456058982	-0.01076285231967259	0.06811593398573487	-0.9911719664220822	0.032586845336296175	0.07037056938394112	-1.0502686307878286	-0.03490129277140048	0.12460682172741129	-1.1993247109115495	0.09449081510367492	1.4152677295208995	-0.7585023688650052	0.1980198543921634	1.6123200433899423	-0.5570552873886343	0.15687931448638562	1.4307811376286537	-0.6001790163574834	-0.10284177410334248	1.4416070745794143	-0.7957212586195556	-0.3536329698741073	1.3669376502352686	-0.7901771978649867	-0.3070105183046889	1.453340985133801	-0.5485397319748877	0.22687435687407304	1.3112411653739615	-0.8667933182552081	0.36201908845150843	1.072420812023975	-0.9406041470516028	0.45761994322155225	0.8477687312197322	-0.8438172976220608
77	1.2833333333333334	-0.06584149240707717	0.9104837361651011	-0.8548567257984201	-0.16515993500560686	0.9199047792116775	-0.8410404622244774	-0.11891038227797471	0.5259125540677706	-0.7337089203848811	-0.054105190393832284	0.13780731234059135	-0.7377192315363955	-0.05727767717261686	0.06140028741708474	-0.5667500606398905	-0.10812221658429497	0.059244783454763035	-0.6006483599718262	-0.04421518922149527	0.08435903911417318	-0.7689729176681425	0.030246991528168687	0.8863533082541796	-0.8477061719396484	-0.012560019441107398	0.48679906831863895	-0.938804708878449	-0.027640750795972353	0.16549725898095882	-1.1471113213893258	-0.008235047864966377	0.06489771742370676	-0.9908904640282976	0.03217105020506296	0.07043226242832772	-1.0506550935686563	-0.035193256828583055	0.1261687681388885	-1.1984645822354516	0.08269690659284835	1.4223874321345602	-0.7488936182510911	0.1768955804044385	1.6234411431083482	-0.5463648562954625	0.13803581120358835	1.4492948689032032	-0.5791967828609841	-0.11546652157223734	1.4392703816976562	-0.7864568884282201	-0.3634469601712166	1.3531662986428994	-0.7858541356156251	-0.32594268962115186	1.4380423040226153	-0.539492758013297	0.21690905614059097	1.3238181117279457	-0.86185229092935	0.3629445497000887	1.0909678452526188	-0.9370615796732154	0.4702657364442249	0.8733010445645295	-0.8395082754488832
78	1.3	-0.057996733090774834	0.9057666420709224	-0.8474341961827297	-0.15562160060502483	0.9141194626832786	-0.8278310407950701	-0.11047546418208012	0.5238008751192758	-0.7186716851091035	-0.048387286881127436	0.1335802350579806	-0.7410618549101525	-0.055892904611499594	0.05830884281279776	-0.5689351860168582	-0.10587289100306242	0.05676977216375128	-0.6038791258677907	-0.038820048376268644	0.08045020772010081	-0.7729257677053641	0.038947696758001846	0.8834704026491271	-0.8367884543310316	-0.006921390904950076	0.4842477369539267	-0.9306021772286943	-0.026490171180913947	0.1674537681657479	-1.145029939570805	-0.006288193438874278	0.06313325023652079	-0.9895781958308355	0.03155842721793136	0.07138971523008122	-1.049488301657163	-0.03479154963310191	0.12946397247748806	-1.1974796332556361	0.07035265887479158	1.4290642016772461	-0.739602056555139	0.1548207250700096	1.6334410654850589	-0.5351273996370061	0.11764641494375648	1.4664814166489624	-0.5578602361569075	-0.1275784078262011	1.436405240894525	-0.774989234002044	-0.37275527870604436	1.3388478580128855	-0.7821803473244192	-0.34417708469375646	1.4218624526916201	-0.5297229351715868	0.2071749552797793	1.3366344709730713	-0.8555334177114231	0.36478115236752795	1.1116884127022366	-0.9323047361323629	0.4846636738061211	0.9024799042894915	-0.834462566490092
79	1.3166666666666669	-0.049718004190154576	0.902943700168334	-0.8386475705578034	-0.1466781959745473	0.9097594414650846	-0.8153694885256577	-0.10392201678573922	0.5232096662600247	-0.703736809046478	-0.04594716002038368	0.13075327906915535	-0.7423857498241629	-0.05590631694044442	0.056171427027541895	-0.5702809496569133	-0.10513764343945226	0.05549980219453443	-0.6057310122501208	-0.03703529502433573	0.07755879157813987	-0.7756994850497676	0.04784936524251714	0.8814845988814922	-0.8259577828497494	-0.00018626782283480262	0.48246896516015864	-0.9195241294517735	-0.024351324614568896	0.17160831250177158	-1.1418931287968057	-0.00531103983617172	0.06395970614034135	-0.986840311977	0.030869078810897392	0.0740071016045785	-1.0462536432485094	-0.03337509645341402	0.13570312809921425	-1.1960198677272382	0.05750285185186726	1.4349511829836301	-0.7305446426568363	0.13191135457454806	1.6416840199815406	-0.5234502935416562	0.0967091748633141	1.480433005717542	-0.5381382353238404	-0.13937360872115528	1.4327476302923745	-0.7626603642391752	-0.3812597440333482	1.3241969524467763	-0.7789721411804683	-0.3614543014466587	1.4046098537725922	-0.5192973618335959	0.19794831330658544	1.3493844991107113	-0.8473429821789906	0.3677739046396771	1.1350028529800542	-0.9250869733584915	0.5005079485445265	0.9356039340630665	-0.8281488333648648
80	1.3333333333333333	-0.04083457363976375	0.902557083072594	-0.8275856976861165	-0.1384790509367473	0.9069114417934702	-0.8038151414997028	-0.09886833570023262	0.5237011751597989	-0.6897625441995635	-0.04576898802721097	0.1293582219903863	-0.7420695040500955	-0.056604769589630684	0.054215612995504314	-0.57139096510113	-0.1052065323204169	0.05467308717655964	-0.6070173600276006	-0.03766798042187973	0.07574422428520954	-0.777250311543605	0.05672390460580738	0.8805654143869474	-0.8149320463714183	0.007873063409156096	0.48168322816112485	-0.9050326590676893	-0.020890737008888414	0.17843799786187814	-1.1371945550162885	-0.005379440446215006	0.06806659393928055	-0.9820115415234044	0.030256623633356863	0.07867186917299004	-1.040110155585119	-0.03061756445434047	0.14555222836912382	-1.1934731633799238	0.04438734922431804	1.4398367858810404	-0.7215398486421567	0.10836863760331163	1.6474151390937115	-0.5115340378610709	0.07593737535105566	1.4903981553700159	-0.5207854776612876	-0.1508526138424604	1.4281255790483138	-0.7507908756537132	-0.3888005377467971	1.3095488814401366	-0.7760647462387061	-0.37791424140332597	1.3862741185613487	-0.5086066108802233	0.18929906051374057	1.3618987431483063	-0.8371194380046247	0.3718758690106326	1.161106413732558	-0.9142863423817091	0.5174815749677203	0.9727754027973855	-0.819801021633978
81	1.35	-0.03176374058564122	0.904208113099718	-0.8150337257956048	-0.13095447600259935	0.9055310598466549	-0.7933746312992374	-0.09469647471437206	0.5251320850157365	-0.6770316814269866	-0.04677226934017836	0.12917290323053665	-0.7407403778505928	-0.05755183339569517	0.05209700891079814	-0.5724093215368978	-0.10568469222335475	0.05375414838994357	-0.6083002811227846	-0.039485417561391234	0.07495849988971136	-0.7775539526283514	0.06524821833420126	0.880903862363613	-0.8038637119237395	0.01723116939704506	0.4822123964452011	-0.886526973552779	-0.01577735026440729	0.1879887223715046	-1.130383542223401	-0.006200309212159833	0.07561661900342917	-0.9742964779268082	0.029938486079714874	0.08539725220043673	-1.0305700319851812	-0.02621376093538678	0.15899695460089872	-1.1890587564383035	0.031254330428585525	1.4435493023030177	-0.7122644487924763	0.08440585546455298	1.6501262333821298	-0.4996846949842917	0.055729089489005554	1.4963347015894726	-0.5057517560715123	-0.16194958034235693	1.422484661693226	-0.7400755918937114	-0.3954113230584607	1.2951708138460873	-0.7730062652964849	-0.39407714707574953	1.3671028901113749	-0.498209972321493	0.18121972946304063	1.3738911091962656	-0.8245790838049041	0.37695184743392324	1.1898089293930982	-0.8983552728003005	0.5351252563014329	1.0138697971527009	-0.8088917957012436
82	1.3666666666666667	-0.02316196053312962	0.9070091538373737	-0.8024045355279216	-0.1239717258115922	0.905555342773188	-0.7842188248773257	-0.09092377034796777	0.5271763036988282	-0.6660544408530669	-0.04807748461540987	0.129937396199448	-0.7388200879074662	-0.05848039899917112	0.049731957609969915	-0.5734037597785462	-0.1063838958452914	0.05243624350467968	-0.609848046759522	-0.04157916067725905	0.07519365575136128	-0.7767045194290065	0.07306735223875725	0.882685674884615	-0.7932953715820866	0.027547873662474943	0.48426838490821944	-0.8636124361288833	-0.008971562490103982	0.19989552025301402	-1.1208110167497416	-0.007040556900323457	0.08606737479376925	-0.9633739752583896	0.030269847855514932	0.09376825660237116	-1.0184358587178668	-0.020046879853995534	0.17546307528405683	-1.182040670517071	0.018143516459129323	1.4458959704120609	-0.7023531290698206	0.06022106224317757	1.6499606825552653	-0.48807459025106154	0.03614988448140961	1.4984484300611565	-0.49268448575991936	-0.17271046946185423	1.415855278773794	-0.7304650674632279	-0.4012597952117701	1.2809944993732507	-0.7690102568500723	-0.4105608440488409	1.3473393756019225	-0.48850389019820634	0.1736418544729725	1.3849857551212499	-0.8095490122864439	0.38266419722277106	1.2205540858640793	-0.8758102179900463	0.5527678322617519	1.058510362708795	-0.79563315874881
